<?xml version="1.0" standalone="no"?>
<!DOCTYPE svg PUBLIC "-//W3C//DTD SVG 20010904//EN"
 "http://www.w3.org/TR/2001/REC-SVG-20010904/DTD/svg10.dtd">
<svg version="1.0" xmlns="http://www.w3.org/2000/svg"
 width="1760.000000pt" height="1728.000000pt" viewBox="0 0 1760.000000 1728.000000"
 preserveAspectRatio="xMidYMid meet">

<g transform="translate(0.000000,1728.000000) scale(0.100000,-0.100000)"
fill="#000000" stroke="none">
<path d="M11189 15951 c-21 -17 -22 -21 -9 -52 29 -75 63 -156 81 -194 33 -72
95 -228 119 -305 12 -41 31 -95 40 -120 29 -75 100 -358 100 -396 0 -11 9 -50
19 -85 22 -74 47 -236 61 -394 5 -60 15 -128 21 -150 16 -53 25 -1347 10
-1408 -5 -23 -19 -73 -31 -112 -12 -38 -28 -93 -36 -121 -8 -29 -21 -65 -29
-80 -8 -16 -15 -36 -15 -45 0 -9 -8 -45 -19 -80 -10 -35 -31 -115 -46 -177
-14 -62 -33 -129 -41 -147 -8 -19 -14 -47 -14 -62 -1 -15 -8 -46 -16 -68 -8
-22 -19 -76 -24 -120 -6 -44 -17 -100 -24 -125 -8 -25 -23 -97 -35 -160 -11
-63 -25 -144 -31 -180 -7 -36 -17 -90 -23 -120 -16 -82 -16 -1398 1 -1465 7
-27 17 -79 23 -115 6 -36 25 -121 41 -190 17 -69 36 -151 43 -183 8 -32 21
-76 29 -98 9 -22 16 -47 16 -57 0 -9 6 -29 14 -43 7 -14 28 -68 45 -118 54
-156 126 -312 199 -428 26 -43 59 -100 72 -127 34 -71 25 -79 -91 -88 -123 -9
-137 -14 -204 -72 -75 -64 -138 -162 -171 -264 -48 -150 -20 -300 70 -379 46
-41 113 -50 268 -35 104 10 125 15 199 51 106 52 127 52 192 -2 62 -52 237
-224 297 -293 25 -29 70 -80 100 -114 30 -35 61 -70 67 -79 94 -121 149 -198
227 -318 90 -137 121 -191 198 -346 44 -89 88 -179 99 -199 10 -20 19 -42 19
-48 0 -7 6 -26 14 -43 45 -98 106 -277 106 -309 0 -10 7 -35 15 -54 16 -38 51
-205 80 -383 24 -141 25 -559 2 -676 -9 -44 -19 -105 -22 -135 -8 -61 -36
-181 -59 -250 -8 -25 -27 -83 -42 -130 -25 -79 -148 -333 -192 -397 -11 -15
-41 -62 -67 -103 -27 -41 -52 -79 -56 -85 -198 -249 -352 -403 -514 -512 -238
-160 -404 -230 -689 -288 -103 -22 -145 -25 -323 -25 -220 0 -342 15 -528 67
-49 13 -116 30 -147 38 -31 7 -76 20 -100 28 -24 8 -74 25 -113 37 -38 12 -84
31 -101 41 -17 11 -38 19 -45 19 -8 1 -32 9 -54 20 -22 11 -46 19 -53 20 -8 0
-28 6 -45 14 -118 54 -242 94 -342 112 -44 7 -111 23 -150 34 -38 12 -106 25
-150 31 -44 5 -109 14 -145 20 -36 6 -94 15 -129 20 -90 14 -1075 6 -1121 -9
-19 -6 -75 -16 -124 -22 -49 -6 -127 -22 -174 -36 -47 -13 -117 -29 -156 -34
-39 -6 -102 -20 -141 -31 -114 -36 -219 -72 -230 -80 -6 -5 -31 -11 -55 -15
-25 -4 -67 -15 -93 -25 -26 -11 -58 -19 -70 -19 -12 -1 -40 -8 -62 -16 -87
-34 -294 -77 -450 -94 -104 -11 -668 -12 -720 0 -22 4 -83 17 -135 29 -90 19
-161 40 -205 61 -11 5 -56 23 -100 40 -90 35 -190 88 -286 151 -186 122 -426
349 -538 509 -95 135 -131 190 -131 198 0 5 -6 14 -13 20 -6 6 -27 39 -45 74
-18 35 -37 70 -42 78 -59 105 -140 331 -140 394 -1 17 -7 49 -15 71 -8 22 -26
135 -41 250 -23 186 -25 234 -21 420 5 203 36 496 56 534 5 9 14 52 20 95 12
83 25 130 73 261 17 44 36 98 44 120 8 22 19 49 24 60 5 11 20 47 34 80 64
154 235 467 302 551 17 21 38 53 47 69 20 38 183 240 306 378 86 97 206 214
291 283 19 15 63 54 97 86 53 50 67 58 100 58 32 0 49 -9 98 -51 33 -28 105
-73 160 -100 118 -58 163 -63 231 -23 93 55 145 154 163 315 15 127 6 173 -46
237 -44 54 -95 102 -108 102 -5 0 -23 7 -39 15 -36 19 -146 45 -189 45 -18 0
-75 -9 -127 -21 -113 -24 -210 -35 -210 -23 1 16 44 59 102 102 103 78 272
268 359 402 87 134 213 426 253 586 7 27 15 55 18 60 4 5 18 79 32 164 14 85
34 198 44 250 14 81 17 158 17 520 0 312 -3 434 -12 460 -7 19 -22 105 -33
190 -20 151 -27 182 -69 340 -36 136 -40 154 -60 250 -22 111 -35 165 -62 275
-40 159 -59 252 -74 370 -9 66 -20 136 -25 155 -5 19 -14 80 -20 135 -6 55
-16 116 -21 135 -17 60 -47 411 -64 745 -15 294 -16 343 -1 595 17 302 35 484
67 660 37 212 95 472 115 515 7 17 18 50 24 75 7 25 16 50 20 55 4 6 13 30 20
55 6 25 50 123 96 218 71 145 83 176 72 189 -48 58 -321 -82 -747 -383 -95
-66 -308 -268 -411 -389 -70 -82 -229 -295 -251 -337 -6 -13 -24 -39 -39 -58
-86 -111 -276 -519 -340 -730 -12 -41 -27 -86 -33 -100 -29 -74 -67 -197 -67
-217 0 -12 -7 -43 -16 -68 -8 -25 -21 -83 -29 -128 -8 -45 -26 -136 -40 -202
-18 -82 -29 -176 -36 -295 -5 -96 -14 -202 -21 -235 -16 -81 -16 -469 0 -565
7 -41 17 -142 22 -225 5 -82 14 -166 20 -185 14 -45 36 -206 55 -395 8 -82 20
-175 25 -205 16 -84 23 -509 12 -655 -17 -210 -57 -482 -92 -625 -10 -41 -23
-95 -29 -120 -22 -98 -49 -188 -75 -250 -15 -36 -32 -81 -38 -100 -6 -19 -17
-44 -24 -55 -8 -11 -14 -27 -14 -36 0 -9 -8 -27 -18 -40 -11 -13 -40 -64 -67
-114 -58 -111 -110 -183 -212 -300 -142 -163 -260 -265 -308 -265 -11 0 -32
10 -47 23 -50 41 -160 201 -210 305 -42 87 -53 123 -69 220 -10 65 -19 138
-19 164 0 84 30 281 50 326 11 25 20 51 20 60 0 24 75 170 135 262 86 132 87
160 4 160 -40 0 -66 -8 -127 -41 -43 -23 -84 -47 -92 -53 -8 -7 -39 -24 -69
-39 -73 -37 -206 -121 -360 -228 -82 -56 -293 -265 -348 -344 -113 -162 -202
-353 -228 -490 -8 -44 -19 -100 -24 -125 -18 -81 -13 -296 8 -385 36 -151 57
-275 46 -275 -39 0 -106 82 -158 192 -15 31 -27 61 -27 66 0 5 -9 29 -19 53
-35 79 -53 238 -46 387 8 146 -1 192 -37 192 -23 0 -109 -85 -153 -151 -16
-24 -55 -75 -86 -114 -158 -197 -358 -548 -384 -675 -4 -19 -11 -40 -16 -45
-9 -12 -28 -94 -64 -279 -20 -105 -25 -159 -25 -288 0 -171 15 -268 66 -438
14 -47 31 -107 39 -135 33 -126 174 -395 296 -565 61 -86 73 -110 61 -122 -15
-15 -138 65 -234 152 -118 107 -239 239 -300 326 -18 27 -46 65 -61 86 -67 87
-132 239 -152 353 -9 52 -22 67 -45 55 -25 -14 -70 -94 -86 -154 -7 -28 -23
-82 -35 -121 -12 -38 -26 -101 -31 -140 -6 -38 -18 -95 -27 -125 -24 -81 -24
-599 1 -680 9 -30 19 -78 22 -106 4 -28 18 -84 32 -125 14 -41 31 -96 38 -124
18 -68 91 -229 154 -340 54 -94 105 -175 118 -186 8 -6 14 -16 14 -21 0 -13
95 -139 180 -238 101 -119 212 -231 297 -301 40 -33 99 -85 130 -115 31 -30
60 -54 64 -54 4 0 28 -25 54 -55 40 -47 44 -56 29 -62 -10 -3 -37 3 -63 16
-306 150 -502 324 -857 759 -49 61 -82 92 -92 90 -26 -5 -28 -106 -3 -203 11
-44 24 -98 30 -120 5 -22 24 -80 40 -130 17 -49 31 -97 31 -105 1 -8 9 -33 20
-55 11 -22 19 -44 20 -49 0 -18 110 -286 160 -391 16 -33 36 -76 44 -95 44
-98 272 -459 353 -558 20 -24 49 -63 67 -87 100 -138 416 -470 641 -671 160
-144 563 -449 635 -481 8 -3 40 -23 70 -43 94 -63 105 -70 215 -130 33 -18 66
-38 74 -44 14 -11 50 -29 342 -177 103 -52 206 -103 230 -113 24 -11 76 -34
114 -52 77 -35 197 -84 209 -84 4 0 26 -8 49 -19 23 -10 74 -31 112 -45 39
-15 84 -34 102 -42 17 -8 38 -14 46 -14 8 0 52 -14 98 -31 46 -17 104 -37 129
-45 25 -8 59 -21 77 -29 17 -8 39 -15 50 -15 10 0 29 -6 43 -13 25 -13 133
-47 270 -85 41 -12 110 -24 153 -27 42 -3 128 -19 190 -34 61 -16 139 -32 172
-36 33 -4 92 -15 130 -25 39 -10 123 -21 188 -25 64 -3 132 -11 150 -16 33 -9
264 -40 447 -59 58 -6 121 -15 140 -21 19 -5 150 -14 290 -19 140 -6 289 -14
330 -20 41 -5 219 -19 395 -31 263 -17 420 -21 885 -20 505 0 605 3 940 26
391 27 429 29 780 45 118 6 233 15 255 20 22 6 112 15 200 20 88 6 207 17 265
25 178 24 361 45 460 51 52 3 140 14 195 24 55 10 138 21 185 25 47 3 101 10
120 15 56 15 244 38 398 50 78 6 164 18 190 25 26 8 76 18 112 21 36 3 121 24
190 46 114 36 163 54 259 95 52 22 181 63 200 63 9 1 34 9 56 20 22 11 46 19
52 20 7 0 57 18 110 39 54 22 130 51 168 66 39 15 88 35 110 45 22 10 55 24
74 31 42 17 519 257 581 293 25 14 59 33 75 42 65 36 312 198 420 276 123 89
158 117 270 217 17 15 73 61 125 103 328 264 793 840 1020 1263 58 109 111
213 141 280 17 39 42 93 54 120 13 28 30 68 38 90 9 22 38 100 66 174 28 73
51 141 51 150 1 9 9 34 20 56 11 22 19 47 20 55 0 8 19 78 41 154 34 115 40
146 33 175 -17 70 -38 59 -217 -121 -173 -175 -239 -234 -327 -291 -30 -20
-75 -51 -100 -68 -25 -18 -91 -56 -147 -86 -107 -56 -163 -68 -163 -35 0 10
69 88 153 173 327 331 588 698 705 994 36 93 93 280 102 339 5 33 16 80 24
105 45 142 46 579 0 721 -7 25 -19 72 -24 105 -6 33 -17 78 -25 100 -7 22 -25
76 -38 120 -35 112 -67 169 -96 173 -29 5 -35 -5 -61 -93 -27 -95 -60 -194
-76 -230 -7 -16 -26 -62 -43 -102 -37 -86 -109 -195 -182 -279 -83 -93 -224
-224 -271 -252 -24 -14 -54 -34 -67 -44 -26 -19 -76 -24 -86 -8 -10 17 38 89
140 209 88 103 192 305 281 541 46 125 58 241 51 525 l-5 220 -45 136 c-54
161 -60 176 -145 344 -102 204 -295 477 -440 623 -59 59 -79 73 -100 70 -37
-4 -41 -34 -30 -185 11 -145 -2 -380 -28 -503 -37 -175 -89 -297 -169 -393
-64 -77 -96 -97 -121 -76 -13 11 -15 24 -10 68 4 30 13 68 20 85 28 65 64 193
71 251 4 33 14 89 22 125 23 94 23 440 1 530 -9 36 -19 92 -23 125 -4 33 -14
76 -22 95 -38 91 -110 231 -144 282 -44 67 -171 227 -220 279 -51 53 -275 226
-376 290 -89 56 -352 189 -374 189 -7 0 -41 7 -75 16 -110 27 -131 -8 -68
-112 145 -237 184 -369 184 -622 0 -255 -43 -434 -166 -687 -73 -151 -124
-225 -154 -225 -29 0 -91 66 -160 170 -34 52 -71 106 -81 120 -33 44 -156 263
-193 343 -20 42 -51 110 -70 150 -34 73 -50 118 -124 352 -57 182 -71 241 -83
357 -5 56 -17 131 -26 167 -24 93 -23 464 1 571 9 41 21 113 26 160 11 95 32
181 83 345 59 188 76 307 88 630 16 414 -1 1093 -30 1203 -6 20 -15 86 -21
145 -6 59 -15 118 -20 131 -5 13 -13 68 -19 122 -20 190 -68 436 -106 554 -42
126 -63 184 -79 215 -9 17 -16 35 -16 40 0 16 -81 178 -137 275 -91 157 -220
341 -312 446 -20 22 -63 72 -96 110 -109 125 -167 183 -284 282 -63 53 -141
121 -173 149 -175 160 -668 483 -736 483 -5 0 -20 -8 -33 -19z"/>
<path d="M8623 14098 c-25 -28 -63 -97 -63 -116 0 -8 -6 -28 -14 -45 -8 -18
-22 -61 -32 -97 -48 -182 -65 -297 -88 -595 -14 -171 -28 -319 -32 -330 -4
-11 -23 -42 -42 -70 -95 -138 -268 -271 -456 -351 -77 -32 -149 -95 -171 -148
-8 -19 -29 -81 -46 -138 -28 -94 -31 -118 -36 -286 -4 -115 -1 -218 7 -278 13
-104 6 -129 -28 -108 -30 19 -100 145 -112 205 -12 56 -9 229 6 377 8 74 -1
78 -64 32 -56 -40 -92 -127 -147 -350 -41 -164 -9 -417 76 -620 19 -45 27 -61
81 -160 91 -169 267 -404 349 -469 74 -58 247 -126 383 -150 64 -12 117 -48
94 -63 -19 -12 -558 1 -583 14 -11 6 -82 71 -159 145 -76 73 -165 153 -198
178 -114 85 -113 87 -113 -321 l0 -332 25 -27 c14 -15 41 -35 61 -45 19 -10
61 -39 92 -64 30 -25 58 -46 62 -46 3 0 42 -29 86 -64 44 -36 105 -77 137 -93
l57 -28 865 0 865 0 56 27 c30 15 92 56 137 90 151 117 217 165 247 181 17 8
41 27 55 42 24 26 25 33 31 198 11 281 9 498 -4 537 -20 56 -50 46 -175 -57
-59 -48 -111 -91 -117 -95 -46 -34 -226 -180 -249 -201 -16 -15 -41 -31 -55
-35 -43 -12 -409 -9 -421 4 -17 17 13 42 58 49 146 25 391 134 485 216 68 60
212 249 260 340 72 140 107 302 107 502 -1 274 -66 475 -253 782 -66 108 -294
394 -361 453 -37 33 -71 41 -78 20 -2 -6 -1 -32 3 -57 22 -135 -1 -221 -60
-221 -61 0 -143 105 -244 311 -77 158 -114 266 -143 419 -7 41 -19 86 -25 100
-18 41 -30 288 -27 566 3 279 1 294 -46 294 -13 0 -32 -10 -43 -22z"/>
<path d="M7002 9543 c-9 -23 -9 -1030 0 -1064 4 -14 27 -39 51 -57 45 -32 87
-66 166 -138 100 -88 248 -201 281 -213 22 -8 150 -18 344 -27 171 -7 362 -19
425 -26 155 -17 854 -17 1009 0 61 7 226 17 365 22 196 7 262 13 292 26 37 15
170 117 255 195 19 17 63 54 98 81 37 30 65 61 69 76 4 15 7 261 7 548 1 572
1 571 -53 537 -25 -15 -57 -49 -171 -183 -30 -36 -77 -86 -103 -112 -44 -43
-53 -47 -111 -53 -34 -4 -639 -5 -1343 -3 -1240 3 -1282 4 -1302 22 -20 19
-111 173 -182 311 -29 57 -41 71 -63 73 -18 2 -28 -2 -34 -15z"/>
<path d="M7009 8033 c-12 -13 -14 -124 -15 -622 -1 -747 -1 -743 39 -781 17
-16 42 -32 55 -35 13 -3 42 -17 63 -31 145 -91 287 -163 346 -174 97 -19 563
-29 1268 -29 742 0 1161 10 1215 30 48 17 108 67 322 265 29 27 52 59 58 82
13 44 10 1217 -4 1245 -16 33 -60 20 -167 -51 -57 -38 -120 -77 -139 -87 -19
-10 -51 -31 -72 -47 -87 -68 24 -63 -1394 -66 l-1280 -3 -27 21 c-15 12 -69
81 -121 154 -80 112 -110 146 -131 146 -1 0 -9 -7 -16 -17z"/>
<path d="M10240 6363 c-36 -31 -99 -81 -140 -111 -41 -31 -94 -72 -117 -93
-80 -73 1 -69 -1418 -69 -1083 0 -1274 2 -1291 14 -20 15 -30 28 -119 166 -56
86 -93 130 -111 130 -7 0 -20 -7 -28 -16 -14 -14 -16 -84 -16 -624 l0 -609 23
-22 c12 -11 51 -41 87 -65 36 -24 90 -61 120 -84 30 -22 69 -47 85 -56 17 -9
46 -29 65 -44 19 -15 53 -33 75 -40 53 -15 1463 -24 2025 -13 l405 9 55 27
c30 15 66 36 80 46 27 20 99 66 199 127 35 21 82 56 105 76 l41 37 0 608 c0
334 -3 620 -8 636 -12 42 -44 34 -117 -30z"/>
<path d="M7845 4646 c-27 -7 -69 -24 -92 -39 -70 -44 -171 -161 -233 -267 -64
-111 -102 -178 -111 -200 -6 -14 -17 -39 -25 -55 -22 -46 -46 -136 -48 -175
l-1 -35 65 4 c35 2 87 9 115 17 78 22 232 60 315 78 43 10 161 21 275 27 110
5 220 14 245 19 59 12 405 12 495 0 39 -6 189 -14 335 -20 146 -5 281 -14 300
-20 19 -5 73 -15 120 -21 47 -6 123 -17 169 -26 98 -17 131 -12 131 20 -1 117
-174 432 -315 572 -64 64 -77 72 -155 97 l-85 27 -725 5 c-555 3 -737 2 -775
-8z"/>
</g>
</svg>
